<svg width="65" height="50" viewBox="0 0 59 40" fill="none" xmlns="http://www.w3.org/2000/svg">
<path d="M1.78767 18H0.513548L5.3565 4.68675H6.65662L11.4996 18H10.2255L6.05207 6.2664H5.96106L1.78767 18ZM2.70425 12.897H9.30887V13.9891H2.70425V12.897ZM13.7813 18V4.68675H18.0782C19.023 4.68675 19.8117 4.85793 20.4444 5.2003C21.0815 5.53833 21.5604 6.00854 21.8811 6.61093C22.2061 7.20899 22.3686 7.89589 22.3686 8.67162C22.3686 9.44736 22.2061 10.1321 21.8811 10.7258C21.5604 11.3195 21.0836 11.7833 20.4509 12.1169C19.8182 12.4506 19.0338 12.6175 18.0977 12.6175H14.4379V11.5059H18.0652C18.7586 11.5059 19.335 11.391 19.7944 11.1614C20.2581 10.9317 20.6026 10.6045 20.828 10.1798C21.0576 9.75506 21.1725 9.25235 21.1725 8.67162C21.1725 8.0909 21.0576 7.58386 20.828 7.15048C20.5983 6.71277 20.2516 6.37474 19.7879 6.13639C19.3285 5.89803 18.7478 5.77885 18.0457 5.77885H14.9969V18H13.7813ZM19.6513 11.9934L22.9277 18H21.5235L18.2797 11.9934H19.6513ZM24.5236 5.77885V4.68675H34.177V5.77885H29.9581V18H28.7424V5.77885H24.5236Z" fill="black"/>
<path d="M13.0922 27.2094H9.84192C9.79859 26.8757 9.70974 26.5745 9.5754 26.3058C9.44105 26.0371 9.26337 25.8075 9.04235 25.6168C8.82133 25.4261 8.55914 25.2809 8.25578 25.1812C7.95675 25.0772 7.62522 25.0252 7.26118 25.0252C6.61545 25.0252 6.05857 25.1834 5.59052 25.4998C5.12681 25.8161 4.76928 26.2733 4.51792 26.8714C4.2709 27.4694 4.14739 28.1932 4.14739 29.0426C4.14739 29.9267 4.27307 30.6677 4.52442 31.2658C4.78012 31.8595 5.13765 32.3081 5.59703 32.6114C6.06074 32.9105 6.60895 33.06 7.24168 33.06C7.59705 33.06 7.91991 33.0145 8.21027 32.9235C8.50496 32.8324 8.76282 32.7003 8.98384 32.5269C9.2092 32.3492 9.39338 32.1347 9.5364 31.8834C9.68374 31.6277 9.78558 31.3395 9.84192 31.0188L13.0922 31.0383C13.0359 31.6277 12.8647 32.2084 12.5787 32.7804C12.297 33.3525 11.9091 33.8747 11.4151 34.3471C10.921 34.8151 10.3186 35.1878 9.6079 35.4652C8.9015 35.7426 8.09109 35.8812 7.17667 35.8812C5.97189 35.8812 4.89279 35.6169 3.93937 35.0882C2.99028 34.5551 2.24054 33.7794 1.69016 32.7609C1.13977 31.7425 0.864581 30.5031 0.864581 29.0426C0.864581 27.5778 1.14411 26.3362 1.70316 25.3177C2.26221 24.2993 3.01845 23.5257 3.97187 22.997C4.9253 22.4683 5.99356 22.204 7.17667 22.204C7.98275 22.204 8.72815 22.3166 9.41288 22.542C10.0976 22.763 10.7 23.088 11.2201 23.5171C11.7401 23.9418 12.1626 24.464 12.4877 25.0837C12.8127 25.7034 13.0142 26.412 13.0922 27.2094ZM14.9335 35.6992V22.386H18.1513V27.7295H23.3973V22.386H26.6086V35.6992H23.3973V30.3492H18.1513V35.6992H14.9335ZM31.8449 22.386V35.6992H28.6271V22.386H31.8449ZM36.8877 22.386L39.865 32.1369H39.9755L42.9528 22.386H46.5541L42.0622 35.6992H37.7783L33.2864 22.386H36.8877ZM47.9875 35.6992V22.386H57.2704V24.9992H51.2053V27.7295H56.7958V30.3492H51.2053V33.086H57.2704V35.6992H47.9875Z" fill="black"/>
</svg>
