<svg width="165" height="113" viewBox="0 0 165 113" fill="none" xmlns="http://www.w3.org/2000/svg">
<path d="M5.05016 50H1.45077L15.1321 12.3901H18.805L32.4863 50H28.8869L17.0971 16.8526H16.84L5.05016 50ZM7.63952 35.5841H26.2976V38.6693H7.63952V35.5841ZM38.9322 50V12.3901H51.0709C53.7398 12.3901 55.968 12.8737 57.7555 13.8408C59.5552 14.7958 60.908 16.1241 61.814 17.8259C62.7322 19.5154 63.1913 21.4559 63.1913 23.6473C63.1913 25.8388 62.7322 27.7732 61.814 29.4504C60.908 31.1277 59.5613 32.4377 57.7738 33.3804C55.9864 34.3231 53.7704 34.7944 51.126 34.7944H40.7869V31.6541H51.0342C52.993 31.6541 54.6213 31.3297 55.9191 30.6808C57.229 30.032 58.2023 29.1076 58.839 27.9078C59.4878 26.708 59.8123 25.2879 59.8123 23.6473C59.8123 22.0068 59.4878 20.5744 58.839 19.3501C58.1901 18.1136 57.2107 17.1586 55.9007 16.4853C54.603 15.8119 52.9624 15.4753 50.9791 15.4753H42.3663V50H38.9322ZM55.515 33.0315L64.7706 50H60.8039L51.6402 33.0315H55.515ZM69.279 15.4753V12.3901H96.5499V15.4753H84.6315V50H81.1974V15.4753H69.279Z" fill="black"/>
<path d="M36.9855 76.0163H27.8034C27.681 75.0736 27.43 74.2228 27.0505 73.4637C26.671 72.7046 26.169 72.0558 25.5446 71.5171C24.9203 70.9784 24.1796 70.5683 23.3226 70.2867C22.4778 69.9929 21.5412 69.8459 20.5128 69.8459C18.6887 69.8459 17.1155 70.2928 15.7932 71.1865C14.4833 72.0803 13.4732 73.3719 12.7631 75.0614C12.0653 76.7509 11.7164 78.7954 11.7164 81.195C11.7164 83.6926 12.0714 85.7861 12.7815 87.4756C13.5038 89.1529 14.5139 90.42 15.8116 91.277C17.1216 92.1217 18.6703 92.5441 20.4577 92.5441C21.4617 92.5441 22.3737 92.4156 23.194 92.1585C24.0265 91.9014 24.755 91.528 25.3794 91.0383C26.016 90.5363 26.5363 89.9303 26.9403 89.2202C27.3566 88.4979 27.6443 87.6837 27.8034 86.7778L36.9855 86.8329C36.8264 88.4979 36.3428 90.1384 35.5348 91.7545C34.739 93.3705 33.6433 94.8458 32.2476 96.1802C30.8519 97.5025 29.1501 98.5553 27.1423 99.3389C25.1467 100.122 22.8573 100.514 20.2741 100.514C16.8706 100.514 13.8221 99.7674 11.1287 98.2738C8.44754 96.7679 6.32954 94.5764 4.7747 91.6994C3.21986 88.8223 2.44244 85.3209 2.44244 81.195C2.44244 77.057 3.2321 73.5494 4.81143 70.6723C6.39075 67.7953 8.52712 65.6099 11.2205 64.1163C13.914 62.6227 16.9318 61.8759 20.2741 61.8759C22.5513 61.8759 24.657 62.1942 26.5914 62.8308C28.5258 63.4552 30.2275 64.3734 31.6966 65.5854C33.1658 66.7852 34.3595 68.2605 35.2777 70.0112C36.1959 71.7619 36.7652 73.7636 36.9855 76.0163ZM42.1872 100V62.3901H51.2775V77.4855H66.0974V62.3901H75.1694V100H66.0974V84.8862H51.2775V100H42.1872ZM89.9617 62.3901V100H80.8714V62.3901H89.9617ZM104.208 62.3901L112.619 89.9364H112.931L121.342 62.3901H131.515L118.826 100H106.724L94.034 62.3901H104.208ZM135.565 100V62.3901H161.789V69.7725H144.655V77.4855H160.448V84.8862H144.655V92.6176H161.789V100H135.565Z" fill="black"/>
</svg>
