<svg width="191" height="29" viewBox="0 0 191 29" fill="none" xmlns="http://www.w3.org/2000/svg">
<path d="M171.372 28.1914V0.380249H190.112V5.22819H177.252V11.8551H189.148V16.703H177.252V23.3435H190.166V28.1914H171.372Z" fill="black"/>
<path d="M147.791 0.380249L154.513 21.5102H154.771L161.507 0.380249H168.025L158.438 28.1914H150.86L141.259 0.380249H147.791Z" fill="black"/>
<path d="M137.929 0.380249V28.1914H132.049V0.380249H137.929Z" fill="black"/>
<path d="M103.518 28.1914V0.380249H109.398V11.8551H121.335V0.380249H127.201V28.1914H121.335V16.703H109.398V28.1914H103.518Z" fill="black"/>
<path d="M99.3013 10.1169H93.3534C93.2447 9.34734 93.0229 8.66383 92.688 8.06633C92.353 7.45977 91.923 6.94374 91.3979 6.51824C90.8728 6.09275 90.2663 5.76683 89.5782 5.54051C88.8992 5.31418 88.1614 5.20102 87.3647 5.20102C85.9253 5.20102 84.6714 5.55861 83.6032 6.27381C82.5349 6.97995 81.7065 8.01201 81.1181 9.36998C80.5296 10.7189 80.2354 12.3575 80.2354 14.2858C80.2354 16.2684 80.5296 17.9342 81.1181 19.2831C81.7156 20.6321 82.5485 21.6505 83.6167 22.3386C84.685 23.0266 85.9208 23.3706 87.324 23.3706C88.1116 23.3706 88.8404 23.2665 89.5103 23.0583C90.1893 22.8501 90.7913 22.5468 91.3164 22.1484C91.8415 21.7411 92.276 21.2477 92.6201 20.6683C92.9731 20.0889 93.2176 19.428 93.3534 18.6856L99.3013 18.7128C99.1474 19.9893 98.7626 21.2205 98.147 22.4065C97.5404 23.5834 96.7211 24.6381 95.6891 25.5705C94.6661 26.4939 93.4439 27.2272 92.0226 27.7704C90.6103 28.3046 89.0124 28.5716 87.2289 28.5716C84.7484 28.5716 82.5304 28.0103 80.5749 26.8878C78.6285 25.7652 77.0894 24.1401 75.9578 22.0127C74.8352 19.8852 74.2739 17.3096 74.2739 14.2858C74.2739 11.253 74.8443 8.67289 75.985 6.5454C77.1257 4.41792 78.6737 2.79741 80.6292 1.68388C82.5847 0.561294 84.7846 0 87.2289 0C88.8404 0 90.3342 0.226329 91.7102 0.678985C93.0954 1.13164 94.3221 1.79252 95.3903 2.66162C96.4586 3.52166 97.3277 4.57635 97.9976 5.82568C98.6766 7.07501 99.1111 8.5054 99.3013 10.1169Z" fill="black"/>
<path d="M50.1567 2.66163V0.380249H70.3226V2.66163H61.5093V28.1914H58.9699V2.66163H50.1567Z" fill="black"/>
<path d="M27.7163 28.1914V0.380249H36.6925C38.6661 0.380249 40.3137 0.737847 41.6355 1.45304C42.9663 2.15919 43.9666 3.14145 44.6366 4.39983C45.3156 5.64916 45.6551 7.08408 45.6551 8.70459C45.6551 10.3251 45.3156 11.7555 44.6366 12.9958C43.9666 14.236 42.9708 15.2047 41.6491 15.9018C40.3273 16.5989 38.6887 16.9475 36.7332 16.9475H29.0879V14.6253H36.6653C38.1138 14.6253 39.3179 14.3854 40.2775 13.9056C41.2462 13.4258 41.9659 12.7423 42.4367 11.8551C42.9165 10.9679 43.1564 9.91771 43.1564 8.70459C43.1564 7.49147 42.9165 6.43226 42.4367 5.52694C41.9569 4.61258 41.2326 3.90644 40.2639 3.40851C39.3043 2.91059 38.0912 2.66163 36.6246 2.66163H30.2557V28.1914H27.7163ZM39.9788 15.6438L46.8229 28.1914H43.8897L37.1134 15.6438H39.9788Z" fill="black"/>
<path d="M2.66162 28.1914H0L10.1169 0.380249H12.8328L22.9496 28.1914H20.288L11.5699 3.68011H11.3798L2.66162 28.1914ZM4.57635 17.5314H18.3733V19.8128H4.57635V17.5314Z" fill="black"/>
</svg>
