<?xml version="1.0" encoding="UTF-8"?>
<svg id="Capa_1" xmlns="http://www.w3.org/2000/svg" version="1.1" viewBox="0 0 453.73 453.73">
  <!-- Generator: Adobe Illustrator 29.8.1, SVG Export Plug-In . SVG Version: 2.1.1 Build 2)  -->
  <defs>
    <style>
      .st0 {
        fill: #1d1d1b;
      }

      .st1 {
        fill: #fff;
      }
    </style>
  </defs>
  <rect class="st1" width="453.73" height="453.73"/>
  <g>
    <g>
      <path class="st0" d="M97.61,220.22l22.97-62.56h6.93l23.13,62.56h-6.21l-14.86-40.98c-.84-2.29-1.76-4.95-2.75-7.96-.99-3.01-2.15-6.64-3.46-10.9h1.34c-1.29,4.28-2.44,7.94-3.44,10.98-1.01,3.04-1.9,5.66-2.69,7.87l-14.74,40.98h-6.21ZM108.36,201.62v-5.25h31.53v5.25h-31.53Z"/>
      <path class="st0" d="M160.59,220.22v-62.56h20.83c4.34,0,8.01.79,11,2.37,2.99,1.58,5.27,3.79,6.82,6.61,1.55,2.83,2.33,6.09,2.33,9.78s-.78,6.93-2.35,9.72c-1.57,2.79-3.86,4.96-6.86,6.53-3.01,1.57-6.68,2.35-11.02,2.35h-17.47v-5.33h17.34c3.19,0,5.86-.55,8-1.64,2.14-1.09,3.76-2.62,4.85-4.6s1.64-4.32,1.64-7.03-.55-5.08-1.64-7.1c-1.09-2.02-2.72-3.58-4.87-4.7-2.16-1.12-4.83-1.68-8.02-1.68h-14.7v57.27h-5.88ZM196.95,220.22l-15.2-28.26h6.68l15.33,28.26h-6.8Z"/>
      <path class="st0" d="M210.64,162.95v-5.29h45.98v5.29h-19.99v57.27h-5.92v-57.27h-20.07Z"/>
    </g>
    <g>
      <path class="st0" d="M126.79,296.07c-5.57,0-10.56-1.27-14.97-3.82-4.41-2.55-7.88-6.21-10.41-11-2.53-4.79-3.8-10.55-3.8-17.3s1.27-12.56,3.82-17.36c2.55-4.8,6.03-8.47,10.45-11.02,4.42-2.55,9.39-3.82,14.91-3.82,3.58,0,6.92.5,10.01,1.51,3.09,1.01,5.83,2.48,8.21,4.41,2.38,1.93,4.33,4.28,5.86,7.05,1.53,2.77,2.53,5.92,3,9.45h-12.97c-.31-1.74-.87-3.29-1.68-4.66-.81-1.37-1.82-2.53-3.02-3.48-1.2-.95-2.58-1.67-4.11-2.16-1.54-.49-3.22-.73-5.04-.73-3.3,0-6.19.83-8.67,2.48-2.48,1.65-4.39,4.02-5.73,7.12-1.34,3.09-2.02,6.84-2.02,11.23s.68,8.22,2.04,11.32c1.36,3.09,3.27,5.44,5.73,7.03,2.46,1.6,5.35,2.39,8.65,2.39,1.79,0,3.46-.25,5-.76,1.54-.5,2.92-1.22,4.14-2.16,1.22-.94,2.23-2.09,3.04-3.46.81-1.37,1.39-2.92,1.72-4.66h12.97c-.39,3.05-1.3,5.92-2.71,8.61-1.41,2.69-3.29,5.07-5.63,7.16-2.34,2.09-5.08,3.72-8.23,4.89-3.15,1.18-6.67,1.76-10.56,1.76Z"/>
      <path class="st0" d="M162.73,295.18v-62.56h12.85v25.23h27.12v-25.23h12.85v62.56h-12.85v-26.58h-27.12v26.58h-12.85Z"/>
      <path class="st0" d="M239.23,232.62v62.56h-12.85v-62.56h12.85Z"/>
      <path class="st0" d="M268.28,295.18l-21.92-62.56h14.19l10.03,30.23c1.2,3.81,2.43,7.98,3.67,12.53,1.25,4.55,2.57,9.51,3.97,14.88h-2.98c1.37-5.43,2.66-10.41,3.86-14.93,1.2-4.52,2.38-8.68,3.53-12.49l9.7-30.23h14.07l-21.41,62.56h-16.71Z"/>
      <path class="st0" d="M313.5,295.18v-62.56h42.57v10.75h-29.73v14.95h27.46v10.54h-27.46v15.58h29.77v10.75h-42.62Z"/>
    </g>
  </g>
</svg>